PathFileType  4	(X/Y/Z) C:\Users\antoi\Documents\MyRepositories\mobilecap\ResultsAnalysis
DataRate	CameraRate	NumFrames	NumMarkers	Units	OrigDataRate	OrigDataStartFrame	OrigNumFrames
100.0	100.0	6	51	mm	100.0	165	1312
Frame#	Time	r_knee			r_shank_antsup			r_ankle			r_calc			r_5meta			r_toe			L_knee			L_shank_antsup			L_ankle			L_calc			L_5meta			L_toe			r_sh2			r_sh3			r_sh4			L_sh2			L_sh3			r_thigh1			r_thigh2			r_thigh3			r_thigh4			r_thigh5			L_thigh1			L_thigh2			L_thigh3			L_thigh4			r.ASIS			r.PSIS			L.ASIS			L.PSIS			C7			R_Shoulder			L_Shoulder			R_Sternum			L_Sternum			R_humerus			R_elbow_med			R_elbow_lat			R_forearm			R_wrist_radius			R_wrist_ulna			L_humerus			L_elbow_med			L_elbow_lat			L_forearm			L_wrist_radius			L_wrist_ulna			R_HJC			L_HJC			R_HJC_reg			L_HJC_reg			
		X1	Y1	Z1	X2	Y2	Z2	X3	Y3	Z3	X4	Y4	Z4	X5	Y5	Z5	X6	Y6	Z6	X7	Y7	Z7	X8	Y8	Z8	X9	Y9	Z9	X10	Y10	Z10	X11	Y11	Z11	X12	Y12	Z12	X13	Y13	Z13	X14	Y14	Z14	X15	Y15	Z15	X16	Y16	Z16	X17	Y17	Z17	X18	Y18	Z18	X19	Y19	Z19	X20	Y20	Z20	X21	Y21	Z21	X22	Y22	Z22	X23	Y23	Z23	X24	Y24	Z24	X25	Y25	Z25	X26	Y26	Z26	X27	Y27	Z27	X28	Y28	Z28	X29	Y29	Z29	X30	Y30	Z30	X31	Y31	Z31	X32	Y32	Z32	X33	Y33	Z33	X34	Y34	Z34	X35	Y35	Z35	X36	Y36	Z36	X37	Y37	Z37	X38	Y38	Z38	X39	Y39	Z39	X40	Y40	Z40	X41	Y41	Z41	X42	Y42	Z42	X43	Y43	Z43	X44	Y44	Z44	X45	Y45	Z45	X46	Y46	Z46	X47	Y47	Z47	X48	Y48	Z48	X49	Y49	Z49	X50	Y50	Z50	X51	Y51	Z51	

165	1.64000000	-181.87486	528.17488	-404.08593	-169.30713	449.04980	-377.77799	-292.95824	106.95156	-381.77496	-347.89449	54.42844	-430.99877	-164.96256	38.71172	-312.76624	-120.00975	61.87573	-366.43849	-179.67768	529.91116	-858.44393	-168.12928	415.08497	-890.87710	-278.84520	102.23629	-893.35255	-342.03592	53.82637	-850.53305	-139.21493	33.27532	-959.66839	-104.45588	58.67151	-900.26283	-194.78608	340.15476	-361.89513	-241.59113	466.93441	-372.66854	-275.13491	355.59088	-365.65165	-253.60210	442.96328	-884.97061	-277.27779	324.45863	-896.57395	-228.72143	845.44441	-406.91194	-180.10407	746.59704	-403.83760	-218.41807	700.69809	-376.12700	-328.57668	792.12829	-412.27249	-270.02015	689.99815	-394.47174	-228.82158	849.74323	-822.85068	-167.37206	726.70423	-847.71799	-332.75843	797.45678	-817.79359	-267.50144	679.22783	-849.69070	-225.92952	987.53360	-483.15563	-392.77733	1079.03814	-567.66915	-221.91051	978.13512	-739.15018	-390.69718	1075.01616	-671.44247	-225.08571	1547.36231	-621.17931	-178.54244	1500.91751	-443.05020	-143.66195	1510.69092	-776.01818	-85.26230	1462.09780	-576.58811	-80.59641	1459.19389	-630.54734	-296.26291	1256.44841	-360.44477	-348.87286	1178.91666	-441.27795	-350.21200	1182.42020	-356.45496	-312.67916	1027.78177	-326.82788	-284.41115	917.73734	-325.39862	-329.20523	918.32424	-323.52178	-226.39999	1267.96818	-873.00875	-303.26445	1199.90995	-818.01305	-278.45247	1195.93637	-883.25136	-260.94076	1022.87057	-901.35341	-243.01579	925.43064	-893.51894	-281.53686	924.80698	-902.38883	-328.98984	937.24875	-489.44211	-321.85702	927.83991	-719.50736	-317.68005	937.37087	-519.33652	-314.29461	930.82363	-688.26687	
166	1.65000000	-187.62693	529.91413	-404.31984	-174.27035	451.14507	-377.62550	-293.30944	106.72159	-381.65574	-347.94822	54.42804	-430.97627	-164.98217	38.71158	-312.72427	-120.05187	61.90393	-366.30812	-185.03290	531.56338	-857.03234	-172.58294	416.80111	-889.70839	-278.93199	102.24122	-893.37831	-342.08675	53.80451	-850.53409	-139.22696	33.31738	-959.63804	-104.46012	58.73060	-900.24381	-198.33833	341.58570	-362.27184	-246.93870	467.61247	-373.22190	-279.08992	356.00860	-366.06206	-258.47699	443.45871	-883.76631	-280.49883	324.75679	-896.07722	-226.75491	849.28655	-407.63157	-180.13008	748.68345	-404.46644	-219.90871	704.30476	-376.15834	-328.01956	798.19737	-411.79533	-271.71321	694.62457	-394.33033	-226.63977	852.89575	-822.01708	-169.08546	728.51893	-846.59609	-331.98893	803.16911	-817.57765	-269.60768	683.19500	-848.87631	-221.79138	994.24998	-483.37571	-389.56607	1084.40182	-567.86842	-218.31644	985.24950	-739.65745	-387.73840	1080.47370	-671.31369	-228.93054	1555.06361	-621.84837	-181.76613	1509.73510	-443.82901	-147.82326	1519.48561	-777.00099	-88.14626	1471.80285	-577.43175	-83.42407	1468.92878	-631.58461	-296.07105	1263.57513	-360.96878	-348.03688	1185.66230	-441.73398	-349.07635	1189.17747	-356.80130	-311.26699	1034.70826	-326.98582	-282.82721	924.67741	-325.57931	-327.57799	925.29036	-323.58856	-227.63414	1275.25068	-872.92354	-303.60523	1206.60870	-817.98667	-278.72752	1202.68348	-883.25127	-260.14646	1029.71518	-900.76874	-241.81507	932.55666	-893.11807	-280.23464	931.60162	-901.93961	-324.44674	943.09279	-489.70205	-317.69218	933.99536	-719.79088	-313.22054	943.39180	-519.38790	-310.23308	936.96972	-688.50568	
167	1.66000000	-193.72705	531.24953	-404.62036	-179.21988	453.27043	-377.33481	-293.64598	106.34917	-381.58213	-348.00983	54.41190	-430.87129	-165.00734	38.68551	-312.70133	-120.09111	61.92534	-366.25205	-190.45914	533.17681	-855.57913	-177.14788	418.34152	-888.31238	-279.11171	102.24254	-893.42375	-342.20032	53.77284	-850.51785	-139.24957	33.37152	-959.59181	-104.46165	58.82946	-900.18076	-202.01102	343.06450	-362.45460	-252.21292	468.26627	-373.78649	-283.06253	356.32630	-366.46198	-263.38544	443.84664	-882.43910	-283.74578	324.88132	-895.40597	-224.96676	853.06449	-408.66749	-180.13436	750.69353	-405.17212	-221.34211	707.65983	-376.39845	-327.47909	804.06406	-411.97711	-273.38486	699.05138	-394.56472	-224.59516	855.86845	-820.96254	-170.68883	730.12836	-845.78946	-331.31357	808.75115	-817.60472	-271.77050	687.21203	-848.27791	-217.71284	1000.95830	-483.53794	-386.32905	1089.35977	-567.96332	-214.80053	991.72702	-739.95816	-384.74708	1085.60324	-671.17145	-232.66033	1562.25146	-622.55271	-184.97374	1518.08265	-444.62742	-152.06725	1527.72100	-777.86699	-90.92772	1481.00178	-578.15633	-86.28573	1478.13000	-632.42425	-295.90800	1270.38619	-361.43730	-347.16410	1192.02305	-442.07822	-347.88666	1195.48943	-357.26085	-309.67990	1041.11076	-327.35329	-281.11872	931.09620	-325.89284	-325.78663	931.81730	-323.74777	-228.85744	1282.11331	-872.84845	-303.80546	1212.79695	-817.83852	-279.01356	1209.08821	-883.16447	-259.28603	1036.20845	-900.28724	-240.47025	939.05333	-892.53154	-278.91759	937.97861	-901.65375	-319.89743	948.84165	-489.68707	-313.58299	939.61729	-719.78326	-308.68619	948.86589	-519.38702	-306.09175	942.70621	-688.61337	
168	1.67000000	-200.05304	532.95986	-404.81370	-184.37026	454.91218	-377.80936	-293.97038	105.97950	-381.50321	-348.09340	54.39909	-430.66698	-165.05021	38.64667	-312.67843	-120.14654	61.94671	-366.22411	-195.92207	534.72930	-854.02213	-181.74849	419.81472	-886.92214	-279.37471	102.27966	-893.50352	-342.28904	53.73064	-850.51311	-139.27625	33.43994	-959.54011	-104.45142	58.95403	-900.04351	-205.86019	344.49640	-362.48477	-257.52507	469.00158	-374.24746	-286.96474	356.63132	-366.73766	-268.30887	444.18075	-881.19003	-287.05931	325.04267	-894.49725	-223.12100	856.47535	-409.67842	-180.68522	752.83631	-405.84781	-222.58857	710.52724	-377.00910	-326.97275	809.87704	-412.36562	-275.09153	703.46612	-394.99498	-222.66688	858.52697	-820.27515	-172.00129	731.29701	-844.89801	-330.61993	814.31393	-817.65647	-273.91609	691.30254	-847.82974	-213.80330	1007.62708	-483.50884	-383.13749	1093.94211	-567.90255	-211.19086	997.74007	-740.39907	-381.75416	1090.34752	-671.17798	-236.31377	1569.00554	-623.28857	-188.15631	1525.88358	-445.47175	-156.33146	1535.40348	-778.61263	-93.71875	1489.74098	-578.96338	-89.18867	1486.81388	-633.20575	-295.79277	1276.86693	-361.80847	-346.12526	1198.03147	-442.31869	-346.67074	1201.41110	-357.68591	-307.98492	1047.22429	-327.78329	-279.29530	937.03790	-326.31773	-323.97525	937.86768	-323.99327	-230.00945	1288.65053	-873.12513	-303.81984	1218.53978	-817.49644	-279.23560	1214.98882	-882.85725	-258.33892	1042.41314	-900.05036	-239.01367	945.15773	-892.14972	-277.49843	944.08091	-901.66862	-315.36674	954.40966	-489.56539	-309.41058	944.81150	-719.65695	-304.18232	953.87081	-519.27897	-301.91120	947.96903	-688.84230	
169	1.68000000	-205.49195	535.55778	-405.00203	-189.64250	456.27817	-378.73059	-294.19179	105.82894	-381.21014	-348.20408	54.38184	-430.48435	-165.08993	38.61572	-312.65430	-120.21898	62.00008	-366.14605	-201.49446	536.16039	-852.33613	-186.27404	421.51185	-886.06235	-279.64579	102.35008	-893.60271	-342.33125	53.69010	-850.52828	-139.28545	33.53489	-959.50537	-104.45478	59.05329	-899.89602	-209.73492	345.80411	-362.72443	-262.91442	469.70261	-374.61812	-290.79370	356.87926	-366.97810	-273.26421	444.49811	-880.06252	-290.46127	325.33425	-893.49231	-221.19611	859.62408	-410.61916	-181.38691	754.97375	-406.49303	-223.87399	713.36293	-377.76331	-326.36076	815.56195	-412.69339	-276.84970	707.93075	-395.41168	-220.69199	860.80788	-819.85305	-173.34690	732.13746	-843.64004	-329.87842	819.47418	-817.29425	-276.12609	695.03913	-846.96343	-209.86079	1013.54474	-483.63486	-380.03446	1098.20526	-567.69069	-207.60390	1003.77992	-741.21217	-378.82122	1094.63958	-671.25355	-239.99943	1575.27936	-623.93611	-191.33322	1533.19778	-446.24361	-160.56633	1542.60345	-779.26156	-96.53909	1497.95264	-579.76829	-92.09613	1494.99374	-634.13273	-295.67299	1282.91432	-362.20806	-344.92738	1203.46815	-442.66550	-345.49879	1206.91544	-358.01328	-306.29880	1053.07380	-328.04042	-277.37412	942.68912	-326.66218	-322.14273	943.48176	-324.23351	-231.17428	1294.75478	-873.33586	-303.83083	1223.91174	-817.22847	-279.45821	1220.37676	-882.49709	-257.39177	1048.18530	-899.84834	-237.52877	951.00413	-892.09318	-276.01084	949.74073	-901.67014	-310.79443	959.28523	-489.79168	-305.26190	949.89853	-719.90188	-299.83462	958.77355	-519.34647	-297.84311	952.91985	-689.36364	
170	1.69000000	-209.48048	537.85815	-405.59316	-194.83898	457.89521	-379.27405	-294.31548	105.79894	-380.73153	-348.31920	54.33006	-430.36376	-165.10236	38.57235	-312.63825	-120.27852	62.09390	-366.09599	-207.18907	537.42603	-850.57200	-190.77499	423.38109	-885.53952	-279.92383	102.41189	-893.69470	-342.39497	53.64889	-850.57397	-139.26241	33.67709	-959.46263	-104.49845	59.13553	-899.79879	-213.51442	347.09378	-363.33628	-268.35880	470.22906	-375.07883	-294.59359	357.04860	-367.24648	-278.26956	444.69712	-878.82482	-293.88832	325.37556	-892.57958	-219.33818	862.62870	-411.68166	-181.87387	756.92004	-407.25972	-225.30633	716.49505	-378.52781	-325.67183	820.91045	-413.14002	-278.51395	712.28409	-395.94475	-218.68685	862.62572	-819.23811	-174.86959	732.91300	-842.41551	-328.92167	823.81696	-815.97769	-278.42154	698.21661	-845.56705	-205.63487	1018.32928	-484.27579	-376.98432	1102.05199	-567.37438	-204.20825	1009.72296	-742.07913	-375.89573	1098.48310	-671.22636	-243.69973	1580.97092	-624.43082	-194.47557	1540.15275	-446.64124	-164.73265	1549.27986	-779.84654	-99.30532	1505.53824	-580.45157	-94.96180	1502.59601	-635.13241	-295.54343	1288.49367	-362.66078	-343.83887	1208.41298	-443.08339	-344.37824	1211.90741	-358.37881	-304.59994	1058.44528	-328.16339	-275.38170	948.03029	-326.91136	-320.17997	948.67634	-324.48265	-232.42429	1300.31160	-873.18887	-303.93674	1228.85824	-817.13863	-279.75892	1225.42245	-882.30408	-256.47143	1053.45191	-899.70423	-236.09217	956.47528	-892.10099	-274.58129	954.80213	-901.40751	-306.12609	963.25427	-490.39386	-301.28344	954.80835	-720.55437	-295.56672	963.46103	-519.90499	-293.78284	957.61356	-690.04471	
